<?xml version="1.0" encoding="UTF-8"?>
<svg version="1.1" xmlns="http://www.w3.org/2000/svg" width="666" height="375">
<path d="M0 0 C1.25683594 0.49113281 1.25683594 0.49113281 2.5390625 0.9921875 C6.3312931 2.09647136 9.43553543 2.19932952 13.375 2.125 C15.56125 2.08375 17.7475 2.0425 20 2 C22.97 10.25 25.94 18.5 29 27 C30.51139579 22.14008724 30.51139579 22.14008724 32.02075195 17.27954102 C33.61639138 12.16126621 35.30375342 7.08873975 37 2 C43.6 2.33 50.2 2.66 57 3 C56.67 4.32 56.34 5.64 56 7 C55.45124823 16.23944848 56.15266376 25.47754014 56.875 34.6875 C56.99258667 36.2648291 56.99258667 36.2648291 57.11254883 37.87402344 C57.23859497 39.36530762 57.23859497 39.36530762 57.3671875 40.88671875 C57.44050293 41.77576904 57.51381836 42.66481934 57.58935547 43.58081055 C58.01027038 46.06050487 58.75810339 47.82715447 60 50 C59 51 59 51 56.86694336 51.11352539 C55.49227905 51.10567017 55.49227905 51.10567017 54.08984375 51.09765625 C53.10048828 51.09443359 52.11113281 51.09121094 51.09179688 51.08789062 C50.05087891 51.07951172 49.00996094 51.07113281 47.9375 51.0625 C46.89271484 51.05798828 45.84792969 51.05347656 44.77148438 51.04882812 C42.1809334 51.03699913 39.59049441 51.02051689 37 51 C37.24447876 50.17097168 37.24447876 50.17097168 37.49389648 49.32519531 C38.05544477 46.74526966 38.1130026 44.43644776 38.09765625 41.796875 C38.09443359 40.8171875 38.09121094 39.8375 38.08789062 38.828125 C38.07951172 37.81234375 38.07113281 36.7965625 38.0625 35.75 C38.05798828 34.71875 38.05347656 33.6875 38.04882812 32.625 C38.03706088 30.08327427 38.02062011 27.54166681 38 25 C35.3029275 29.04560875 34.30188673 33.4637462 33.03125 38.10742188 C31.78902991 42.34905314 30.69581013 45.27494675 27 48 C21.51404494 48.87078652 21.51404494 48.87078652 19 48 C14.30334943 43.47623227 12.54810655 38.78120213 10.6875 32.625 C10.42388672 31.79355469 10.16027344 30.96210938 9.88867188 30.10546875 C9.24661126 28.07422245 8.62153806 26.03761964 8 24 C7.67 24 7.34 24 7 24 C6.77355431 27.24900334 6.57202483 30.49909039 6.375 33.75 C6.31054688 34.67039063 6.24609375 35.59078125 6.1796875 36.5390625 C6.128125 37.42851562 6.0765625 38.31796875 6.0234375 39.234375 C5.97106934 40.05131836 5.91870117 40.86826172 5.86474609 41.70996094 C6.01696618 44.28726124 6.80375427 45.74282254 8 48 C8 48.99 8 49.98 8 51 C4.37 51 0.74 51 -3 51 C-2.68450195 50.00581055 -2.36900391 49.01162109 -2.04394531 47.98730469 C-0.9349591 44.0925373 -0.5335714 40.23536998 -0.296875 36.203125 C-0.25056946 35.48767517 -0.20426392 34.77222534 -0.15655518 34.03509521 C-0.06201012 32.5361732 0.02853788 31.0369941 0.11523438 29.53759766 C0.25050567 27.24141641 0.40582434 24.94715252 0.5625 22.65234375 C0.65225227 21.19017797 0.74083559 19.72793987 0.828125 18.265625 C0.87592102 17.58123352 0.92371704 16.89684204 0.97296143 16.19171143 C1.16919306 12.48158626 1.13118135 11.19677203 -1 8 C-1.32727273 2.65454545 -1.32727273 2.65454545 0 0 Z " fill="#5E4CF9" transform="translate(425,158)"/>
<path d="M0 0 C1.25683594 0.49113281 1.25683594 0.49113281 2.5390625 0.9921875 C6.3312931 2.09647136 9.43553543 2.19932952 13.375 2.125 C15.56125 2.08375 17.7475 2.0425 20 2 C22.64 10.25 25.28 18.5 28 27 C29.94752965 21.15741105 31.86321513 15.3178474 33.6875 9.4375 C34.450625 6.983125 35.21375 4.52875 36 2 C42.93 2.33 49.86 2.66 57 3 C56.34 4.98 55.68 6.96 55 9 C54.80049484 11.37226428 54.80049484 11.37226428 54.98828125 13.6875 C55.03460693 14.544646 55.08093262 15.40179199 55.12866211 16.28491211 C55.18932861 17.18089111 55.24999512 18.07687012 55.3125 19 C55.36736572 19.92756104 55.42223145 20.85512207 55.47875977 21.81079102 C55.59093249 23.67382669 55.7082757 25.53655901 55.83105469 27.39892578 C55.97994707 29.69126603 56.10857747 31.9832516 56.2265625 34.27734375 C56.5515789 39.9169802 57.03623699 44.66524301 59 50 C58 51 58 51 55.95874023 51.11352539 C54.64691772 51.10567017 54.64691772 51.10567017 53.30859375 51.09765625 C52.36435547 51.09443359 51.42011719 51.09121094 50.44726562 51.08789062 C49.45404297 51.07951172 48.46082031 51.07113281 47.4375 51.0625 C46.44041016 51.05798828 45.44332031 51.05347656 44.41601562 51.04882812 C41.94395151 51.03700007 39.47200482 51.02051849 37 51 C37.24363281 49.67548828 37.24363281 49.67548828 37.4921875 48.32421875 C37.93665599 45.41465962 38.13388156 42.74785706 38.125 39.8125 C38.12757813 38.97332031 38.13015625 38.13414062 38.1328125 37.26953125 C37.93892459 32.49646709 37.46275953 27.75356291 37 23 C36.80365967 23.65073486 36.60731934 24.30146973 36.4050293 24.97192383 C35.508964 27.9218561 34.59842234 30.86712332 33.6875 33.8125 C33.2244043 35.34874023 33.2244043 35.34874023 32.75195312 36.91601562 C32.44580078 37.89892578 32.13964844 38.88183594 31.82421875 39.89453125 C31.40789185 41.25348511 31.40789185 41.25348511 30.9831543 42.63989258 C29.94870697 45.12313128 29.15322351 46.40211379 27 48 C22.59744706 48.49706243 20.40938839 48.74074832 16.48046875 46.67578125 C12.7266046 42.62633725 11.69192642 37.98394267 10.1875 32.75 C9.87619141 31.71875 9.56488281 30.6875 9.24414062 29.625 C8.48054758 27.08752159 7.73321533 24.5463898 7 22 C6.40933893 27.96446592 5.86003773 33.87513004 5.875 39.875 C5.87242187 40.92429688 5.86984375 41.97359375 5.8671875 43.0546875 C5.99153253 45.81222144 6.37604925 48.31602138 7 51 C3.7 51 0.4 51 -3 51 C-2.690625 49.515 -2.38125 48.03 -2.0625 46.5 C0.03993041 34.88444475 1.00772985 21.78531515 0 10 C-0.66 9.34 -1.32 8.68 -2 8 C-2.25 5 -2.25 5 -2 2 C-1.34 1.34 -0.68 0.68 0 0 Z " fill="#5E4CF7" transform="translate(133,158)"/>
<path d="M0 0 C0.71551025 0.32742187 1.43102051 0.65484375 2.16821289 0.9921875 C5.13255286 2.0471746 7.18251645 2.20566573 10.30859375 2.125 C11.30310547 2.10953125 12.29761719 2.0940625 13.32226562 2.078125 C15.39518475 2.02613957 17.46810143 1.9740566 19.54101562 1.921875 C24.79633672 1.84023894 29.09095356 1.86429591 34 4 C35.155 4.45375 36.31 4.9075 37.5 5.375 C42.83406672 8.59444784 45.11292538 14.29226375 47 20 C48.42095336 28.63736647 47.08924359 35.84032923 42 43 C37.76411969 47.81504893 32.82027753 49.81843707 26.47314453 50.22705078 C25.20583496 50.21657715 23.93852539 50.20610352 22.6328125 50.1953125 C21.95322479 50.1924826 21.27363708 50.18965271 20.57345581 50.18673706 C18.42378392 50.17562964 16.27454386 50.15054391 14.125 50.125 C12.65886023 50.11495795 11.19271386 50.10583425 9.7265625 50.09765625 C6.15090369 50.07572159 2.57549406 50.04125814 -1 50 C-0.67 49.01 -0.34 48.02 0 47 C0.0970997 44.20755924 0.139961 41.44079732 0.1328125 38.6484375 C0.13376923 37.83380035 0.13472595 37.01916321 0.13571167 36.17984009 C0.13639166 34.46006188 0.13454998 32.74028108 0.13037109 31.02050781 C0.12500649 28.37819717 0.13032925 25.73605545 0.13671875 23.09375 C0.13605821 21.42447879 0.13477754 19.75520768 0.1328125 18.0859375 C0.13483673 17.29118011 0.13686096 16.49642273 0.13894653 15.67758179 C0.46749956 12.0399146 0.46749956 12.0399146 -1 9 C-1.1328125 7.1875 -1.1328125 7.1875 -1.125 5 C-1.12757813 4.278125 -1.13015625 3.55625 -1.1328125 2.8125 C-1 1 -1 1 0 0 Z M19 8 C19 20.21 19 32.42 19 45 C23.90814611 45.57370747 23.90814611 45.57370747 26.23046875 42.8828125 C30.91886414 35.24476439 30.74674659 24.59286627 29 16 C27.62940031 12.60329643 26.5669039 10.5669039 24 8 C22.35 8 20.7 8 19 8 Z " fill="#5E4CF8" transform="translate(249,158)"/>
<path d="M0 0 C1.07652832 0.48762817 1.07652832 0.48762817 2.17480469 0.98510742 C5.07282517 2.02616093 7.14308907 2.23968185 10.203125 2.23828125 C11.18410156 2.25439453 12.16507813 2.27050781 13.17578125 2.28710938 C15.20957272 2.30390689 17.2434935 2.30929518 19.27734375 2.30273438 C27.50716153 2.46948232 33.28709015 4.58021461 39.375 10.1875 C43.9834891 18.16373113 45.40042583 26.88980873 43.34375 35.86328125 C41.02963437 43.23453751 37.71240822 47.25594336 31.1015625 51.10546875 C24.15945646 54.06038006 14.95666918 53.72968642 8 51 C2.20090334 47.16352279 -1.78888827 42.63333519 -4 36 C-4.14966931 33.2771699 -4.2380055 30.59862927 -4.25 27.875 C-4.25394775 27.10816895 -4.25789551 26.34133789 -4.26196289 25.55126953 C-4.21035526 20.5362846 -3.54271452 16.5152347 -1.59375 11.859375 C-0.63034847 8.84240706 -1.45009481 6.05502882 -2 3 C-1.34 2.01 -0.68 1.02 0 0 Z M16.38671875 8.2734375 C10.95950572 15.03069991 12.49911241 27.79123899 13 36 C13.58222771 40.55088192 14.41697397 44.12546095 17 48 C19.45709375 48.58350505 19.45709375 48.58350505 22 48 C27.32327661 42.51899668 27.02827715 33.42507029 26.96875 26.21484375 C26.61489386 20.30670999 26.25494161 14.5120795 24 9 C20.20440038 6.42836166 20.20440038 6.42836166 16.38671875 8.2734375 Z " fill="#5E4DF5" transform="translate(200,157)"/>
<path d="M0 0 C2.42578125 0.41796875 2.42578125 0.41796875 4.42578125 2.41796875 C4.42578125 3.73796875 4.42578125 5.05796875 4.42578125 6.41796875 C5.91078125 6.91296875 5.91078125 6.91296875 7.42578125 7.41796875 C9.50108512 10.3387668 10.42578125 11.79343606 10.42578125 15.41796875 C11.35390625 15.88203125 11.35390625 15.88203125 12.30078125 16.35546875 C13.67578125 17.04296875 15.05078125 17.73046875 16.42578125 18.41796875 C16.42578125 19.07796875 16.42578125 19.73796875 16.42578125 20.41796875 C18.90078125 21.40796875 18.90078125 21.40796875 21.42578125 22.41796875 C21.42578125 23.07796875 21.42578125 23.73796875 21.42578125 24.41796875 C23.40578125 24.74796875 25.38578125 25.07796875 27.42578125 25.41796875 C27.92078125 28.88296875 27.92078125 28.88296875 28.42578125 32.41796875 C26.44578125 32.91296875 26.44578125 32.91296875 24.42578125 33.41796875 C24.42578125 34.07796875 24.42578125 34.73796875 24.42578125 35.41796875 C21.77349313 36.49322069 19.14209671 37.51253026 16.42578125 38.41796875 C16.09578125 39.40796875 15.76578125 40.39796875 15.42578125 41.41796875 C13.98828125 43.10546875 13.98828125 43.10546875 12.42578125 44.41796875 C11.76578125 44.41796875 11.10578125 44.41796875 10.42578125 44.41796875 C10.14992187 44.98 9.8740625 45.54203125 9.58984375 46.12109375 C8.38210097 48.50415669 7.10401316 50.83586955 5.80078125 53.16796875 C5.35476562 53.9671875 4.90875 54.76640625 4.44921875 55.58984375 C4.11148438 56.193125 3.77375 56.79640625 3.42578125 57.41796875 C1.44578125 57.41796875 -0.53421875 57.41796875 -2.57421875 57.41796875 C-2.90421875 56.09796875 -3.23421875 54.77796875 -3.57421875 53.41796875 C-4.56421875 53.41796875 -5.55421875 53.41796875 -6.57421875 53.41796875 C-8.57421875 49.41796875 -10.57421875 45.41796875 -12.57421875 41.41796875 C-13.56421875 41.41796875 -14.55421875 41.41796875 -15.57421875 41.41796875 C-16.90755208 40.08463542 -18.24088542 38.75130208 -19.57421875 37.41796875 C-21.85529536 35.96279919 -24.18892322 34.70235865 -26.57421875 33.41796875 C-26.57421875 30.44796875 -26.57421875 27.47796875 -26.57421875 24.41796875 C-25.84589844 24.16273438 -25.11757813 23.9075 -24.3671875 23.64453125 C-21.42826037 22.35386954 -19.35564992 20.83015134 -16.88671875 18.79296875 C-12.78850446 15.41796875 -12.78850446 15.41796875 -10.57421875 15.41796875 C-10.16623047 14.34482422 -10.16623047 14.34482422 -9.75 13.25 C-8.5733594 10.4158989 -7.26382399 7.78072214 -5.76171875 5.10546875 C-5.04048828 3.78095703 -5.04048828 3.78095703 -4.3046875 2.4296875 C-2.57421875 0.41796875 -2.57421875 0.41796875 0 0 Z " fill="#695BFB" transform="translate(59.57421875,157.58203125)"/>
<path d="M0 0 C0.99201416 0.32145996 1.98402832 0.64291992 3.00610352 0.97412109 C6.95461864 2.09809264 10.8134979 2.34518294 14.90234375 2.4140625 C15.98619102 2.44311172 15.98619102 2.44311172 17.0919342 2.4727478 C19.37367375 2.53197605 21.65546533 2.57869855 23.9375 2.625 C25.4954633 2.66323223 27.05340666 2.70228692 28.61132812 2.7421875 C32.4074414 2.83916112 36.20337204 2.91917543 40 3 C40 7.95 40 12.9 40 18 C37.69 17.67 35.38 17.34 33 17 C31.27507776 13.9396541 30 11.5580523 30 8 C26.37 8 22.74 8 19 8 C19 12.62 19 17.24 19 22 C21.31 22 23.62 22 26 22 C26.33 20.35 26.66 18.7 27 17 C28.65 17.33 30.3 17.66 32 18 C32 22.29 32 26.58 32 31 C30.35 31 28.7 31 27 31 C26.690625 30.0409375 26.690625 30.0409375 26.375 29.0625 C25.92125 28.381875 25.4675 27.70125 25 27 C23.02 26.67 21.04 26.34 19 26 C19 32.27 19 38.54 19 45 C22.96 45 26.92 45 31 45 C31.103125 44.0925 31.20625 43.185 31.3125 42.25 C32.02207342 38.89565294 32.45619923 37.28064896 35 35 C36.98 35 38.96 35 41 35 C41 39.95 41 44.9 41 50 C27.14 50 13.28 50 -1 50 C-0.01 47.03 -0.01 47.03 1 44 C1.18404828 41.39502226 1.28107937 38.90213294 1.265625 36.30078125 C1.26753845 35.58391647 1.2694519 34.8670517 1.27142334 34.12846375 C1.27277686 32.62331793 1.26913897 31.11816011 1.26074219 29.61303711 C1.2499828 27.30881724 1.26068952 25.00536853 1.2734375 22.70117188 C1.27211668 21.23437328 1.2695559 19.76757517 1.265625 18.30078125 C1.26967346 17.61325272 1.27372192 16.92572418 1.27789307 16.21736145 C1.24215842 12.58347338 1.07535993 11.11303989 -1 8 C-1.32727273 2.65454545 -1.32727273 2.65454545 0 0 Z " fill="#5E4CF9" transform="translate(590,158)"/>
<path d="M0 0 C1.216875 0.33 2.43375 0.66 3.6875 1 C9.774858 2.3808384 15.7958116 2.14012661 22 2 C22.08781738 2.68715088 22.17563477 3.37430176 22.26611328 4.08227539 C23.44120516 12.16688077 25.59191796 19.73786902 28.20361328 27.44799805 C28.88087758 29.45491687 29.53675842 31.46802711 30.19140625 33.48242188 C30.62374405 34.77906528 31.05729412 36.07530525 31.4921875 37.37109375 C32.07009033 39.1025061 32.07009033 39.1025061 32.65966797 40.86889648 C34.04183446 44.09772804 35.76436748 46.31872152 38 49 C38 49.66 38 50.32 38 51 C30.74 51 23.48 51 16 51 C15.67 48.03 15.34 45.06 15 42 C14.67 41.01 14.34 40.02 14 39 C9.05 39 4.1 39 -1 39 C-1.165 40.423125 -1.33 41.84625 -1.5 43.3125 C-1.5928125 44.11300781 -1.685625 44.91351563 -1.78125 45.73828125 C-2.04813463 48.11896555 -2.04813463 48.11896555 -2 51 C-5.63 51 -9.26 51 -13 51 C-12.24530175 47.98120699 -11.54101172 45.85301081 -10.23828125 43.12109375 C-7.43504073 36.92252166 -5.31433042 30.51833792 -3.1875 24.0625 C-2.76791016 22.85142578 -2.34832031 21.64035156 -1.91601562 20.39257812 C0.44927851 13.19538165 1.61526944 7.472911 0 0 Z M6 15 C5.16320723 17.62394306 4.33043058 20.24904384 3.5 22.875 C3.26152344 23.62136719 3.02304687 24.36773437 2.77734375 25.13671875 C1.47229585 28.99242067 1.47229585 28.99242067 1 33 C4.63 33 8.26 33 12 33 C10.85440314 26.65515584 9.43143813 20.96807541 7 15 C6.67 15 6.34 15 6 15 Z " fill="#5E4CF7" transform="translate(500,158)"/>
<path d="M0 0 C0.99201416 0.32145996 1.98402832 0.64291992 3.00610352 0.97412109 C6.95461864 2.09809264 10.8134979 2.34518294 14.90234375 2.4140625 C15.98619102 2.44311172 15.98619102 2.44311172 17.0919342 2.4727478 C19.37367375 2.53197605 21.65546533 2.57869855 23.9375 2.625 C25.4954633 2.66323223 27.05340666 2.70228692 28.61132812 2.7421875 C32.4074414 2.83916112 36.20337204 2.91917543 40 3 C40 7.95 40 12.9 40 18 C35 18 35 18 32.75 16.375 C30.67534985 13.55940337 30.31342642 11.44769066 30 8 C26.37 8 22.74 8 19 8 C19 13.28 19 18.56 19 24 C20.98 23.34 22.96 22.68 25 22 C25.33 21.01 25.66 20.02 26 19 C27.65 19 29.3 19 31 19 C31 23.29 31 27.58 31 32 C29.35 32 27.7 32 26 32 C25.773125 31.360625 25.54625 30.72125 25.3125 30.0625 C24.15808353 27.7227493 24.15808353 27.7227493 21.41796875 27.37109375 C20.62003906 27.24863281 19.82210938 27.12617188 19 27 C19.11430048 29.8966148 19.2410424 32.79178316 19.375 35.6875 C19.4059375 36.50412109 19.436875 37.32074219 19.46875 38.16210938 C19.50742187 38.95810547 19.54609375 39.75410156 19.5859375 40.57421875 C19.63306885 41.66609497 19.63306885 41.66609497 19.68115234 42.7800293 C19.98877693 45.5413538 19.98877693 45.5413538 22 50 C14.41 50 6.82 50 -1 50 C-0.34 48.35 0.32 46.7 1 45 C1.18792993 42.35586141 1.28072018 39.82138106 1.265625 37.1796875 C1.26753845 36.43921173 1.2694519 35.69873596 1.27142334 34.93582153 C1.27277921 33.37762103 1.26912469 31.81940901 1.26074219 30.26123047 C1.25000324 27.8757197 1.260673 25.49095673 1.2734375 23.10546875 C1.2721164 21.58854001 1.26955502 20.07161173 1.265625 18.5546875 C1.26967346 17.84214813 1.27372192 17.12960876 1.27789307 16.39547729 C1.24291834 12.70988977 1.10089795 11.15134693 -1 8 C-1.32727273 2.65454545 -1.32727273 2.65454545 0 0 Z " fill="#5E4CF9" transform="translate(329,158)"/>
<path d="M0 0 C15.51 0 31.02 0 47 0 C46.67 3.3 46.34 6.6 46 10 C46.33161528 12.94437544 46.33161528 12.94437544 47 15 C44.25 15.375 44.25 15.375 41 15 C37.90260432 11.41354184 37 9.78912885 37 5 C35.35 5 33.7 5 32 5 C32.11852115 10.17796403 32.24278768 15.35574683 32.37231445 20.53344727 C32.41555069 22.29382608 32.4572335 24.05424378 32.49731445 25.81469727 C32.55529185 28.34924013 32.61890627 30.88358934 32.68359375 33.41796875 C32.70030624 34.20149216 32.71701874 34.98501556 32.73423767 35.7922821 C32.83961456 39.70399677 33.22680994 43.13404972 34 47 C26.74 47 19.48 47 12 47 C12.66 45.02 13.32 43.04 14 41 C14.16237778 38.21513377 14.23437565 35.53777516 14.1953125 32.7578125 C14.1924826 31.98944061 14.18965271 31.22106873 14.18673706 30.42941284 C14.17561311 27.99444479 14.1505236 25.55985538 14.125 23.125 C14.11496011 21.46615118 14.10583603 19.80729654 14.09765625 18.1484375 C14.07569937 14.09881421 14.04122406 10.04947113 14 6 C12.68 5.67 11.36 5.34 10 5 C9.9175 5.9075 9.835 6.815 9.75 7.75 C8.89059651 11.47408179 8.07709473 12.77765381 5 15 C3.35 15 1.7 15 0 15 C0 10.05 0 5.1 0 0 Z " fill="#5E4BFD" transform="translate(539,161)"/>
<path d="M0 0 C0.84820312 0.32742187 1.69640625 0.65484375 2.5703125 0.9921875 C6.20190011 2.05932828 9.10336301 2.20197218 12.875 2.125 C14.02742188 2.10695312 15.17984375 2.08890625 16.3671875 2.0703125 C17.23601562 2.04710937 18.10484375 2.02390625 19 2 C19.23074219 2.75023437 19.46148437 3.50046875 19.69921875 4.2734375 C21.90815584 11.20583296 24.54416767 17.59821223 28 24 C31.33363045 21.35410993 32.03826418 18.31501097 33.1875 14.3125 C33.53167969 13.13300781 33.87585938 11.95351562 34.23046875 10.73828125 C34.61138672 9.38283203 34.61138672 9.38283203 35 8 C32.525 7.01 32.525 7.01 30 6 C30 4.35 30 2.7 30 1 C35.61 1 41.22 1 47 1 C45.75410396 3.49179208 44.48687313 5.97317165 43.1875 8.4375 C40.82537059 13.14413099 39.00637621 18.03320624 37.171875 22.96484375 C36.27655139 25.28373191 35.31397733 27.41986749 34.1875 29.625 C31.88421564 36.17117661 32.14173245 42.69131385 35 49 C34 50 34 50 31.86694336 50.11352539 C30.49227905 50.10567017 30.49227905 50.10567017 29.08984375 50.09765625 C28.10048828 50.09443359 27.11113281 50.09121094 26.09179688 50.08789062 C25.05087891 50.07951172 24.00996094 50.07113281 22.9375 50.0625 C21.89271484 50.05798828 20.84792969 50.05347656 19.77148438 50.04882812 C17.1809334 50.03699913 14.59049441 50.02051689 12 50 C12.33 49.01 12.66 48.02 13 47 C15.31311331 38.64871895 13.61400824 32.96055094 10.125 25.3125 C9.39835942 23.6627948 8.67179467 22.01305621 7.9453125 20.36328125 C7.60266357 19.60370117 7.26001465 18.84412109 6.90698242 18.06152344 C6.17123808 16.38921517 5.50944889 14.68450828 4.87109375 12.97265625 C4.18002332 10.79878177 4.18002332 10.79878177 1.9375 10.125 C1.298125 9.75375 0.65875 9.3825 0 9 C-1.42682927 2.85365854 -1.42682927 2.85365854 0 0 Z " fill="#5E4CF8" transform="translate(372,159)"/>
<path d="M0 0 C1.22589844 0.47566406 1.22589844 0.47566406 2.4765625 0.9609375 C6.51234559 2.15109083 10.19509032 2.44359343 14.375 2.625 C15.47908203 2.68300781 15.47908203 2.68300781 16.60546875 2.7421875 C18.40327406 2.83557998 20.20160108 2.9188371 22 3 C21.67547852 3.65234619 21.35095703 4.30469238 21.01660156 4.97680664 C19.73013263 8.80253786 19.71326131 12.38299537 19.734375 16.37109375 C19.73246155 17.17104263 19.7305481 17.97099152 19.72857666 18.79518127 C19.72721961 20.48202836 19.73088247 22.16888605 19.73925781 23.85571289 C19.74995021 26.42553399 19.73935369 28.99465384 19.7265625 31.56445312 C19.72788446 33.20833486 19.73044759 34.85221617 19.734375 36.49609375 C19.73032654 37.2587706 19.72627808 38.02144745 19.72210693 38.80723572 C19.72841125 39.5314119 19.73471558 40.25558807 19.74121094 41.00170898 C19.74280212 41.63060532 19.74439331 42.25950165 19.74603271 42.90745544 C20.01590474 45.71312559 20.01590474 45.71312559 22 51 C14.74 51 7.48 51 0 51 C0 48 0 48 1 45 C1.10853861 42.44906903 1.16401905 39.92625816 1.16796875 37.375 C1.17129715 36.63169434 1.17462555 35.88838867 1.17805481 35.12255859 C1.18311294 33.55241514 1.18546348 31.98226097 1.18530273 30.41210938 C1.18749186 28.00893517 1.20566607 25.60621817 1.22460938 23.203125 C1.22754299 21.6770849 1.229528 20.15104263 1.23046875 18.625 C1.23765427 17.90618652 1.24483978 17.18737305 1.25224304 16.44677734 C1.23523809 12.73919724 1.11310708 11.16966061 -1 8 C-1.32727273 2.65454545 -1.32727273 2.65454545 0 0 Z " fill="#5E4CF8" transform="translate(301,158)"/>
<path d="M0 0 C2.64 0 5.28 0 8 0 C8.33 2.31 8.66 4.62 9 7 C10.1446875 7.37125 10.1446875 7.37125 11.3125 7.75 C14.37754038 9.17560018 15.46110282 10.00320024 17 13 C17.1875 16.75 17.1875 16.75 17 20 C15.35 20.33 13.7 20.66 12 21 C12 21.66 12 22.32 12 23 C11.01 23 10.02 23 9 23 C8.896875 23.763125 8.79375 24.52625 8.6875 25.3125 C7.94342109 28.22117209 7.51982932 29.38010972 5 31 C2.32520673 30.73904456 0.39904859 30.1995243 -2 29 C-2.625 25.9375 -2.625 25.9375 -3 23 C-3.66 23 -4.32 23 -5 23 C-5.33 22.34 -5.66 21.68 -6 21 C-8.52733235 20.34444881 -8.52733235 20.34444881 -11 20 C-12.125 14.25 -12.125 14.25 -11 12 C-10.01 12 -9.02 12 -8 12 C-7.67 11.01 -7.34 10.02 -7 9 C-6.01 8.67 -5.02 8.34 -4 8 C-2.76722873 6.13977928 -2.76722873 6.13977928 -1.8125 3.9375 C-1.46832031 3.20402344 -1.12414062 2.47054687 -0.76953125 1.71484375 C-0.51558594 1.14894531 -0.26164062 0.58304688 0 0 Z " fill="#5947EE" transform="translate(88,194)"/>
<path d="M0 0 C2.64 0 5.28 0 8 0 C8.33 2.31 8.66 4.62 9 7 C10.65 7.66 12.3 8.32 14 9 C14 9.66 14 10.32 14 11 C14.99 11.33 15.98 11.66 17 12 C17.125 17.75 17.125 17.75 16 20 C14.68 20 13.36 20 12 20 C11.67 20.99 11.34 21.98 11 23 C10.34 23 9.68 23 9 23 C8.731875 23.763125 8.46375 24.52625 8.1875 25.3125 C7.05575888 27.87380884 6.08776599 29.19692938 4 31 C-0.44907205 29.51697598 -2.74579392 25.91714499 -5 22 C-5 21.34 -5 20.68 -5 20 C-6.98 19.34 -8.96 18.68 -11 18 C-12.125 13.25 -12.125 13.25 -11 11 C-10.01 11 -9.02 11 -8 11 C-8 10.34 -8 9.68 -8 9 C-7.4225 8.814375 -6.845 8.62875 -6.25 8.4375 C-2.89572157 6.29448878 -1.82092004 3.51177437 0 0 Z " fill="#7064F6" transform="translate(88,150)"/>
<path d="M0 0 C7.92 0 15.84 0 24 0 C20.47320901 2.35119399 18.97120515 2.21443452 14.8125 2.125 C13.72582031 2.10695312 12.63914062 2.08890625 11.51953125 2.0703125 C10.27236328 2.03550781 10.27236328 2.03550781 9 2 C9 2.66 9 3.32 9 4 C9.969375 3.979375 10.93875 3.95875 11.9375 3.9375 C15 4 15 4 16 5 C16.10106874 7.87264056 16.13969672 10.72073628 16.1328125 13.59375 C16.13424759 14.8865387 16.13424759 14.8865387 16.13571167 16.20544434 C16.1363935 18.03133212 16.13453904 19.85722231 16.13037109 21.68310547 C16.12502286 24.48801078 16.13031599 27.29275595 16.13671875 30.09765625 C16.13605797 31.86718786 16.13477681 33.63671936 16.1328125 35.40625 C16.13483673 36.25102905 16.13686096 37.09580811 16.13894653 37.96618652 C16.11495031 43.88504969 16.11495031 43.88504969 15 45 C20.61 45.33 26.22 45.66 32 46 C31.34 45.01 30.68 44.02 30 43 C29.80381266 40.13344391 29.71998278 37.36641492 29.734375 34.5 C29.73246155 33.66791016 29.7305481 32.83582031 29.72857666 31.97851562 C29.72721626 30.22004901 29.73090262 28.4615723 29.73925781 26.703125 C29.74995952 24.01018738 29.73935779 21.31791686 29.7265625 18.625 C29.72788412 16.91666519 29.73044657 15.2083308 29.734375 13.5 C29.73032654 12.69369141 29.72627808 11.88738281 29.72210693 11.05664062 C29.7546108 7.18525308 29.80310951 5.29533574 32 2 C30.68 1.34 29.36 0.68 28 0 C34.27 0 40.54 0 47 0 C46.7215625 2.3203125 46.7215625 2.3203125 46.4375 4.6875 C46.06296765 8.35479593 45.92633329 11.42111097 47 15 C44.25 15.375 44.25 15.375 41 15 C37.90260432 11.41354184 37 9.78912885 37 5 C35.35 5 33.7 5 32 5 C32.11852115 10.17796403 32.24278768 15.35574683 32.37231445 20.53344727 C32.41555069 22.29382608 32.4572335 24.05424378 32.49731445 25.81469727 C32.55529185 28.34924013 32.61890627 30.88358934 32.68359375 33.41796875 C32.70030624 34.20149216 32.71701874 34.98501556 32.73423767 35.7922821 C32.83961456 39.70399677 33.22680994 43.13404972 34 47 C26.74 47 19.48 47 12 47 C12.66 45.02 13.32 43.04 14 41 C14.16237778 38.21513377 14.23437565 35.53777516 14.1953125 32.7578125 C14.1924826 31.98944061 14.18965271 31.22106873 14.18673706 30.42941284 C14.17561311 27.99444479 14.1505236 25.55985538 14.125 23.125 C14.11496011 21.46615118 14.10583603 19.80729654 14.09765625 18.1484375 C14.07569937 14.09881421 14.04122406 10.04947113 14 6 C12.68 5.67 11.36 5.34 10 5 C9.9175 5.9075 9.835 6.815 9.75 7.75 C8.89059651 11.47408179 8.07709473 12.77765381 5 15 C3.35 15 1.7 15 0 15 C0 10.05 0 5.1 0 0 Z " fill="#5E4FE8" transform="translate(539,161)"/>
<path d="M0 0 C1 2 1 2 0.9375 4.875 C1.00188529 8.09426466 1.53574779 9.24376055 3 12 C3.144375 13.03125 3.28875 14.0625 3.4375 15.125 C3.623125 16.07375 3.80875 17.0225 4 18 C4.99 18.66 5.98 19.32 7 20 C6.9278125 20.78761719 6.855625 21.57523438 6.78125 22.38671875 C5.41000559 36.75470356 5.41000559 36.75470356 7 51 C3.7 51 0.4 51 -3 51 C-2.690625 49.515 -2.38125 48.03 -2.0625 46.5 C0.03993041 34.88444475 1.00772985 21.78531515 0 10 C-0.66 9.34 -1.32 8.68 -2 8 C-2.25 5 -2.25 5 -2 2 C-1.34 1.34 -0.68 0.68 0 0 Z " fill="#6151DE" transform="translate(133,158)"/>
<path d="M0 0 C0.33 0 0.66 0 1 0 C1 6.27 1 12.54 1 19 C4.96 19 8.92 19 13 19 C13.103125 18.0925 13.20625 17.185 13.3125 16.25 C14.02207342 12.89565294 14.45619923 11.28064896 17 9 C18.98 9 20.96 9 23 9 C23 13.95 23 18.9 23 24 C9.14 24 -4.72 24 -19 24 C-18.34 22.02 -17.68 20.04 -17 18 C-16.67 18 -16.34 18 -16 18 C-16 19.65 -16 21.3 -16 23 C-6.1 22.505 -6.1 22.505 4 22 C2.68 21.67 1.36 21.34 0 21 C0 14.07 0 7.14 0 0 Z " fill="#5B4BEE" transform="translate(608,184)"/>
<path d="M0 0 C10.56 0 21.12 0 32 0 C32 4.95 32 9.9 32 15 C29.69 14.67 27.38 14.34 25 14 C23.27507776 10.9396541 22 8.5580523 22 5 C18.37 5 14.74 5 11 5 C11 9.62 11 14.24 11 19 C10.34 19 9.68 19 9 19 C8.94615479 16.70858714 8.90727913 14.41681812 8.875 12.125 C8.85179687 10.84882813 8.82859375 9.57265625 8.8046875 8.2578125 C9 5 9 5 11 3 C14.125 2.875 14.125 2.875 17 3 C16.278125 2.855625 15.55625 2.71125 14.8125 2.5625 C12.20833333 2.04166667 9.60416667 1.52083333 7 1 C7.33 1.99 7.66 2.98 8 4 C7.01 4 6.02 4 5 4 C5.33 3.34 5.66 2.68 6 2 C3.03 1.505 3.03 1.505 0 1 C0 0.67 0 0.34 0 0 Z " fill="#5D4EE8" transform="translate(598,161)"/>
<path d="M0 0 C0.76171875 1.66015625 0.76171875 1.66015625 1 4 C-0.73046875 6.62109375 -0.73046875 6.62109375 -3.1875 9.4375 C-3.98542969 10.36433594 -4.78335938 11.29117188 -5.60546875 12.24609375 C-6.39566406 13.15488281 -7.18585937 14.06367188 -8 15 C-10.14041212 17.6169132 -12.12377639 20.18566459 -14 23 C-14.99 23 -15.98 23 -17 23 C-17.99 23.33 -18.98 23.66 -20 24 C-20 24.66 -20 25.32 -20 26 C-21.32 26.33 -22.64 26.66 -24 27 C-22.88145414 30.72614153 -22.88145414 30.72614153 -20 33 C-20.33 33.66 -20.66 34.32 -21 35 C-25.75 33.125 -25.75 33.125 -28 32 C-28 29.03 -28 26.06 -28 23 C-27.27167969 22.74476563 -26.54335938 22.48953125 -25.79296875 22.2265625 C-22.85404162 20.93590079 -20.78143117 19.41218259 -18.3125 17.375 C-14.21428571 14 -14.21428571 14 -12 14 C-11.773125 13.278125 -11.54625 12.55625 -11.3125 11.8125 C-9.75173074 8.46799444 -7.6266129 6.55926385 -5 4 C-4.67 3.01 -4.34 2.02 -4 1 C-2 0 -2 0 0 0 Z " fill="#7573EA" transform="translate(61,159)"/>
<path d="M0 0 C0.33 0 0.66 0 1 0 C1 1.98 1 3.96 1 6 C2.32 6 3.64 6 5 6 C5.33 5.34 5.66 4.68 6 4 C5.9592334 4.70608398 5.9184668 5.41216797 5.87646484 6.13964844 C5.69793891 9.34258269 5.53629204 12.54615361 5.375 15.75 C5.31054688 16.86117187 5.24609375 17.97234375 5.1796875 19.1171875 C5.128125 20.18710938 5.0765625 21.25703125 5.0234375 22.359375 C4.97106934 23.34389648 4.91870117 24.32841797 4.86474609 25.34277344 C5.0075259 28.14785543 5.67546548 29.57308594 7 32 C7 32.99 7 33.98 7 35 C3.37 35 -0.26 35 -4 35 C-3.69320313 34.14277344 -3.38640625 33.28554687 -3.0703125 32.40234375 C-1.3234411 26.28829387 -1.2637697 19.87522773 -0.875 13.5625 C-0.78863281 12.25861328 -0.70226562 10.95472656 -0.61328125 9.61132812 C-0.40206819 6.40793008 -0.19785972 3.20424591 0 0 Z " fill="#5B4EDC" transform="translate(426,174)"/>
<path d="M0 0 C2.64 0 5.28 0 8 0 C8.33 2.31 8.66 4.62 9 7 C10.65 7.66 12.3 8.32 14 9 C14 9.66 14 10.32 14 11 C14.99 11.33 15.98 11.66 17 12 C17.125 17.75 17.125 17.75 16 20 C14.68 20 13.36 20 12 20 C11.67 20.99 11.34 21.98 11 23 C10.34 23 9.68 23 9 23 C8.731875 23.763125 8.46375 24.52625 8.1875 25.3125 C7.05575888 27.87380884 6.08776599 29.19692938 4 31 C-0.44907205 29.51697598 -2.74579392 25.91714499 -5 22 C-5 21.34 -5 20.68 -5 20 C-6.98 19.34 -8.96 18.68 -11 18 C-12.125 13.25 -12.125 13.25 -11 11 C-10.01 11 -9.02 11 -8 11 C-8 10.34 -8 9.68 -8 9 C-7.4225 8.814375 -6.845 8.62875 -6.25 8.4375 C-2.89572157 6.29448878 -1.82092004 3.51177437 0 0 Z M2 2 C1.195625 3.36125 1.195625 3.36125 0.375 4.75 C-2.12846522 8.78229894 -5.72940751 10.23786232 -10 12 C-9.96906827 14.41585574 -9.96906827 14.41585574 -9 17 C-8.0925 17.4125 -7.185 17.825 -6.25 18.25 C-1.63530019 20.73483836 -0.18977182 24.37822496 2 29 C2.99 29 3.98 29 5 29 C5.350625 27.948125 5.70125 26.89625 6.0625 25.8125 C7.95485851 21.29288648 10.91367148 19.54431776 15 17 C14.5047409 12.75492198 11.86001618 10.23977185 9.0625 7.25 C8.60681641 6.74339844 8.15113281 6.23679688 7.68164062 5.71484375 C6.50093297 4.43214232 5.25448188 3.21064807 4 2 C3.34 2 2.68 2 2 2 Z " fill="#6460CC" transform="translate(88,150)"/>
<path d="M0 0 C0.33 0 0.66 0 1 0 C1.04241723 2.33294775 1.04092937 4.66702567 1 7 C0.67 7.33 0.34 7.66 0 8 C0.99 8 1.98 8 3 8 C2.58411954 14.19518473 1.39748106 19.26689311 -1 25 C2.63 25 6.26 25 10 25 C9.67 22.69 9.34 20.38 9 18 C11.1519437 21.22791555 11.20086443 22.28400809 11 26 C9.53626953 25.94779297 9.53626953 25.94779297 8.04296875 25.89453125 C6.13451172 25.85392578 6.13451172 25.85392578 4.1875 25.8125 C2.92292969 25.77769531 1.65835937 25.74289063 0.35546875 25.70703125 C-2.96596445 25.69172579 -2.96596445 25.69172579 -4.94921875 27.51171875 C-5.29597656 28.00285156 -5.64273437 28.49398437 -6 29 C-6.66 28.67 -7.32 28.34 -8 28 C-8.33 28.66 -8.66 29.32 -9 30 C-8.40241829 23.31277605 -6.19854074 17.35358227 -3.9375 11.0625 C-3.56044922 9.99708984 -3.18339844 8.93167969 -2.79492188 7.83398438 C-1.86907983 5.22053151 -0.93730537 2.60935879 0 0 Z " fill="#5D4EEB" transform="translate(502,166)"/>
<path d="M0 0 C1.22589844 0.47566406 1.22589844 0.47566406 2.4765625 0.9609375 C6.51234559 2.15109083 10.19509032 2.44359343 14.375 2.625 C15.47908203 2.68300781 15.47908203 2.68300781 16.60546875 2.7421875 C18.40327406 2.83557998 20.20160108 2.9188371 22 3 C21.67547852 3.65234619 21.35095703 4.30469238 21.01660156 4.97680664 C19.73013263 8.80253786 19.71326131 12.38299537 19.734375 16.37109375 C19.73246155 17.17104263 19.7305481 17.97099152 19.72857666 18.79518127 C19.72721961 20.48202836 19.73088247 22.16888605 19.73925781 23.85571289 C19.74995021 26.42553399 19.73935369 28.99465384 19.7265625 31.56445312 C19.72788446 33.20833486 19.73044759 34.85221617 19.734375 36.49609375 C19.73032654 37.2587706 19.72627808 38.02144745 19.72210693 38.80723572 C19.72841125 39.5314119 19.73471558 40.25558807 19.74121094 41.00170898 C19.74280212 41.63060532 19.74439331 42.25950165 19.74603271 42.90745544 C20.01590474 45.71312559 20.01590474 45.71312559 22 51 C14.74 51 7.48 51 0 51 C0 48 0 48 2 45 C2 46.32 2 47.64 2 49 C7.28 49 12.56 49 18 49 C17.99214478 47.10725342 17.99214478 47.10725342 17.98413086 45.17626953 C17.96606542 40.50602932 17.95456231 35.83579221 17.94506836 31.16552734 C17.94003169 29.14208457 17.93320211 27.11864544 17.92456055 25.09521484 C17.91246588 22.19107157 17.90676512 19.28697631 17.90234375 16.3828125 C17.89718246 15.47443634 17.89202118 14.56606018 17.88670349 13.63015747 C17.88659019 12.36907669 17.88659019 12.36907669 17.88647461 11.08251953 C17.884254 10.34083527 17.88203339 9.599151 17.87974548 8.83499146 C18 7 18 7 19 5 C17.3743193 5.30893932 15.74947252 5.6222695 14.125 5.9375 C12.76761719 6.19853516 12.76761719 6.19853516 11.3828125 6.46484375 C9.00043683 6.89963701 9.00043683 6.89963701 7 8 C7 7.34 7 6.68 7 6 C6.34 5.67 5.68 5.34 5 5 C5 4.34 5 3.68 5 3 C3.35 3 1.7 3 0 3 C0 4.65 0 6.3 0 8 C-0.33 8 -0.66 8 -1 8 C-1.125 2.25 -1.125 2.25 0 0 Z " fill="#6559DF" transform="translate(301,158)"/>
<path d="M0 0 C0.99 0.33 1.98 0.66 3 1 C3 1.66 3 2.32 3 3 C3.99 3.33 4.98 3.66 6 4 C6 4.66 6 5.32 6 6 C7.32 6.33 8.64 6.66 10 7 C9 10 9 10 6.625 11.3125 C3.37199038 13.40372047 2.48184769 15.49036073 1 19 C0.34 18.67 -0.32 18.34 -1 18 C-1 17.34 -1 16.68 -1 16 C-1.66 16 -2.32 16 -3 16 C-3.061875 15.38125 -3.12375 14.7625 -3.1875 14.125 C-3.828919 11.72238859 -3.828919 11.72238859 -6.5625 10.75 C-7.366875 10.5025 -8.17125 10.255 -9 10 C-7.87240651 6.61721952 -6.75475825 5.58114101 -4.125 3.25 C-3.42632812 2.61578125 -2.72765625 1.9815625 -2.0078125 1.328125 C-1.34523438 0.88984375 -0.68265625 0.4515625 0 0 Z " fill="#6655FB" transform="translate(91,157)"/>
<path d="M0 0 C2.31 0.66 4.62 1.32 7 2 C7 2.33 7 2.66 7 3 C5.02 3.33 3.04 3.66 1 4 C1.34444881 6.47266765 1.34444881 6.47266765 2 9 C2.66 9.33 3.32 9.66 4 10 C4 22.54 4 35.08 4 48 C11.24696416 48.54615699 11.24696416 48.54615699 18 47 C18 41.06 18 35.12 18 29 C18.33 29 18.66 29 19 29 C19.04898437 30.09699219 19.09796875 31.19398438 19.1484375 32.32421875 C19.22350591 33.77866925 19.29905197 35.23309516 19.375 36.6875 C19.4059375 37.40873047 19.436875 38.12996094 19.46875 38.87304688 C19.50742187 39.57880859 19.54609375 40.28457031 19.5859375 41.01171875 C19.63306885 41.97791138 19.63306885 41.97791138 19.68115234 42.96362305 C20.0112553 45.56776301 20.0112553 45.56776301 22 50 C14.41 50 6.82 50 -1 50 C-0.34 48.35 0.32 46.7 1 45 C1.18792993 42.35586141 1.28072018 39.82138106 1.265625 37.1796875 C1.26753845 36.43921173 1.2694519 35.69873596 1.27142334 34.93582153 C1.27277921 33.37762103 1.26912469 31.81940901 1.26074219 30.26123047 C1.25000324 27.8757197 1.260673 25.49095673 1.2734375 23.10546875 C1.2721164 21.58854001 1.26955502 20.07161173 1.265625 18.5546875 C1.26967346 17.84214813 1.27372192 17.12960876 1.27789307 16.39547729 C1.24291834 12.70988977 1.10089795 11.15134693 -1 8 C-1.32727273 2.65454545 -1.32727273 2.65454545 0 0 Z " fill="#6458D5" transform="translate(329,158)"/>
<path d="M0 0 C0.433125 0.598125 0.86625 1.19625 1.3125 1.8125 C3.91397508 5.18478251 6.08677139 7.24579407 10 9 C9.01 9.33 8.02 9.66 7 10 C6.67 10.99 6.34 11.98 6 13 C5.34 13 4.68 13 4 13 C3.34 14.65 2.68 16.3 2 18 C1.01 18 0.02 18 -1 18 C-2.38442 16.03501678 -3.71203834 14.02951535 -5 12 C-6.29682374 10.63113049 -7.61823134 9.2830709 -9 8 C-8.38125 7.7525 -7.7625 7.505 -7.125 7.25 C-4.60421533 5.76718549 -4.2147002 4.59136042 -3 2 C-2.01 1.34 -1.02 0.68 0 0 Z " fill="#5131FB" transform="translate(91,200)"/>
<path d="M0 0 C2.64 0 5.28 0 8 0 C8.33 2.31 8.66 4.62 9 7 C10.1446875 7.37125 10.1446875 7.37125 11.3125 7.75 C14.34813868 9.16192497 15.44504874 10.05377656 17 13 C17.1875 16.25 17.1875 16.25 17 19 C16.67 19 16.34 19 16 19 C16 17.35 16 15.7 16 14 C14.68 13.67 13.36 13.34 12 13 C12 12.34 12 11.68 12 11 C10.68 10.67 9.36 10.34 8 10 C8 9.34 8 8.68 8 8 C4.71303767 7.20046862 3.28976808 6.90341064 0 8 C-0.33 9.65 -0.66 11.3 -1 13 C-4.65456815 13.75241109 -8.31733897 14.40049704 -12 15 C-11.67 14.01 -11.34 13.02 -11 12 C-10.01 12 -9.02 12 -8 12 C-7.67 11.01 -7.34 10.02 -7 9 C-6.01 8.67 -5.02 8.34 -4 8 C-2.76722873 6.13977928 -2.76722873 6.13977928 -1.8125 3.9375 C-1.46832031 3.20402344 -1.12414062 2.47054687 -0.76953125 1.71484375 C-0.51558594 1.14894531 -0.26164062 0.58304688 0 0 Z " fill="#6052E2" transform="translate(88,194)"/>
<path d="M0 0 C1.65 0.33 3.3 0.66 5 1 C5 5.29 5 9.58 5 14 C3.35 14 1.7 14 0 14 C-0.20625 13.360625 -0.4125 12.72125 -0.625 12.0625 C-1.89538209 9.65074923 -1.89538209 9.65074923 -5.125 9.25 C-6.548125 9.12625 -6.548125 9.12625 -8 9 C-7.67 7.68 -7.34 6.36 -7 5 C-5.02 5 -3.04 5 -1 5 C-0.67 3.35 -0.34 1.7 0 0 Z " fill="#5C4FE1" transform="translate(617,175)"/>
<path d="M0 0 C0.64324219 0.31710938 1.28648437 0.63421875 1.94921875 0.9609375 C5.92305679 2.31438298 9.64201079 2.45720161 13.8125 2.625 C14.99489258 2.68300781 14.99489258 2.68300781 16.20117188 2.7421875 C18.1337538 2.83588844 20.06684376 2.91900779 22 3 C20.94140625 4.52734375 20.94140625 4.52734375 19 6 C15.71484375 6.00390625 15.71484375 6.00390625 11.9375 5.5625 C8.26438511 5.09500748 8.26438511 5.09500748 5 5 C4.34 5.66 3.68 6.32 3 7 C2.34 6.67 1.68 6.34 1 6 C1.33 6.99 1.66 7.98 2 9 C2.0853013 11.87694671 2.11585645 14.72900182 2.09765625 17.60546875 C2.0962413 18.44467361 2.09482635 19.28387848 2.09336853 20.14851379 C2.08777215 22.82821216 2.07522035 25.5078269 2.0625 28.1875 C2.05748453 30.00455608 2.05292171 31.82161348 2.04882812 33.63867188 C2.03780391 38.09248013 2.02054178 42.54622589 2 47 C1.67 47 1.34 47 1 47 C0.96241577 45.32659546 0.96241577 45.32659546 0.92407227 43.61938477 C0.83016579 39.4950741 0.72990486 35.3709385 0.62768555 31.24682617 C0.584273 29.4591073 0.54260271 27.67134526 0.50268555 25.88354492 C0.4451354 23.31936609 0.38139797 20.75540588 0.31640625 18.19140625 C0.29969376 17.3872377 0.28298126 16.58306915 0.26576233 15.75453186 C0.50779304 12.07330002 0.50779304 12.07330002 -1 9 C-1.1328125 7.1875 -1.1328125 7.1875 -1.125 5 C-1.12757813 4.278125 -1.13015625 3.55625 -1.1328125 2.8125 C-1 1 -1 1 0 0 Z " fill="#6053D7" transform="translate(249,158)"/>
<path d="M0 0 C0.66 0.33 1.32 0.66 2 1 C2 8.92 2 16.84 2 25 C0.02 25 -1.96 25 -4 25 C-3.71682059 21.95732762 -3.42376386 18.91614859 -3.125 15.875 C-3.04636719 15.0190625 -2.96773437 14.163125 -2.88671875 13.28125 C-2.41779282 8.59199072 -1.72786571 4.42856339 0 0 Z " fill="#5C4EF6" transform="translate(135,182)"/>
<path d="M0 0 C0.33 0 0.66 0 1 0 C1 6.27 1 12.54 1 19 C4.96 19 8.92 19 13 19 C13.33 17.68 13.66 16.36 14 15 C14 16.65 14 18.3 14 20 C12.35 20.66 10.7 21.32 9 22 C12.3 22.33 15.6 22.66 19 23 C19 23.33 19 23.66 19 24 C6.46 24 -6.08 24 -19 24 C-18.34 22.02 -17.68 20.04 -17 18 C-16.67 18 -16.34 18 -16 18 C-16 19.65 -16 21.3 -16 23 C-6.1 22.505 -6.1 22.505 4 22 C2.68 21.67 1.36 21.34 0 21 C0 14.07 0 7.14 0 0 Z " fill="#5C50D7" transform="translate(608,184)"/>
<path d="M0 0 C6.6 0.33 13.2 0.66 20 1 C19.67 2.32 19.34 3.64 19 5 C18.91879767 7.0976396 18.89244192 9.19768762 18.90234375 11.296875 C18.90717773 13.10478516 18.90717773 13.10478516 18.91210938 14.94921875 C18.92048828 16.20347656 18.92886719 17.45773438 18.9375 18.75 C18.94201172 20.01972656 18.94652344 21.28945312 18.95117188 22.59765625 C18.96295444 25.73181836 18.97940584 28.86588541 19 32 C18.34 31.67 17.68 31.34 17 31 C17 21.76 17 12.52 17 3 C12.05 3 7.1 3 2 3 C1.67 3.99 1.34 4.98 1 6 C0.01 6.33 -0.98 6.66 -2 7 C-1.34 4.69 -0.68 2.38 0 0 Z " fill="#6054D8" transform="translate(462,160)"/>
<path d="M0 0 C0.76171875 1.66015625 0.76171875 1.66015625 1 4 C-0.73046875 6.62109375 -0.73046875 6.62109375 -3.1875 9.4375 C-3.98542969 10.36433594 -4.78335938 11.29117188 -5.60546875 12.24609375 C-6.39566406 13.15488281 -7.18585937 14.06367188 -8 15 C-10.14041212 17.6169132 -12.12377639 20.18566459 -14 23 C-15.65 22.67 -17.3 22.34 -19 22 C-18.34 21.67 -17.68 21.34 -17 21 C-16.67 20.01 -16.34 19.02 -16 18 C-15.2575 17.46375 -14.515 16.9275 -13.75 16.375 C-9.485094 12.69167209 -7.31022976 7.85138125 -4.98046875 2.78125 C-3.66344071 0.38856161 -2.70649284 0 0 0 Z " fill="#7E79FA" transform="translate(61,159)"/>
<path d="M0 0 C0.33 1.32 0.66 2.64 1 4 C2.65 3.34 4.3 2.68 6 2 C6 5.63 6 9.26 6 13 C2.37 13 -1.26 13 -5 13 C-4.19595286 9.78381144 -3.29662577 7.23130815 -1.9375 4.25 C-1.57527344 3.45078125 -1.21304687 2.6515625 -0.83984375 1.828125 C-0.56269531 1.22484375 -0.28554688 0.6215625 0 0 Z " fill="#594DD7" transform="translate(492,196)"/>
<path d="M0 0 C1.65 0 3.3 0 5 0 C5 4.29 5 8.58 5 13 C3.35 13 1.7 13 0 13 C-1.01866229 11.34467377 -2.01810813 9.67739862 -3 8 C-5.59122743 7.11341534 -5.59122743 7.11341534 -8 7 C-8 6.67 -8 6.34 -8 6 C-6.02 6 -4.04 6 -2 6 C-1.34 4.02 -0.68 2.04 0 0 Z " fill="#5C4EE9" transform="translate(355,177)"/>
<path d="M0 0 C0.33 0 0.66 0 1 0 C1 6.27 1 12.54 1 19 C5.95 18.67 10.9 18.34 16 18 C16.33 14.7 16.66 11.4 17 8 C17.33 8 17.66 8 18 8 C18.33692785 9.60341555 18.66941093 11.20776555 19 12.8125 C19.185625 13.70582031 19.37125 14.59914062 19.5625 15.51953125 C20 18 20 18 20 21 C12.74 21 5.48 21 -2 21 C-1.67 19.68 -1.34 18.36 -1 17 C-0.86070644 15.63323368 -0.75634699 14.2625433 -0.68359375 12.890625 C-0.62075195 11.75947266 -0.62075195 11.75947266 -0.55664062 10.60546875 C-0.51732422 9.82816406 -0.47800781 9.05085937 -0.4375 8.25 C-0.39431641 7.45722656 -0.35113281 6.66445312 -0.30664062 5.84765625 C-0.20097009 3.89862185 -0.10002034 1.94933252 0 0 Z " fill="#5A50D0" transform="translate(464,188)"/>
<path d="M0 0 C1.28162488 3.84487465 0.97825059 7.19160277 0.83984375 11.2109375 C1.01131214 14.19699672 1.74902262 16.3018135 3 19 C2 20 2 20 -0.13305664 20.11352539 C-1.04949951 20.10828857 -1.96594238 20.10305176 -2.91015625 20.09765625 C-3.89951172 20.09443359 -4.88886719 20.09121094 -5.90820312 20.08789062 C-6.94912109 20.07951172 -7.99003906 20.07113281 -9.0625 20.0625 C-10.10728516 20.05798828 -11.15207031 20.05347656 -12.22851562 20.04882812 C-14.8190666 20.03699913 -17.40950559 20.02051689 -20 20 C-19.34 18.68 -18.68 17.36 -18 16 C-18 16.66 -18 17.32 -18 18 C-12.39 18 -6.78 18 -1 18 C-1 13.71 -1 9.42 -1 5 C-1.66 5 -2.32 5 -3 5 C-3 4.01 -3 3.02 -3 2 C-2.01 1.34 -1.02 0.68 0 0 Z " fill="#584FCE" transform="translate(404,189)"/>
<path d="M0 0 C2.475 0.99 2.475 0.99 5 2 C5 2.66 5 3.32 5 4 C7.97 4.495 7.97 4.495 11 5 C11.33 7.31 11.66 9.62 12 12 C10.68 12.33 9.36 12.66 8 13 C8 13.66 8 14.32 8 15 C5.34771188 16.07525194 2.71631546 17.09456151 0 18 C-0.33 18.99 -0.66 19.98 -1 21 C-3.0625 22.1875 -3.0625 22.1875 -5 23 C-5 22.01 -5 21.02 -5 20 C-4.01 20 -3.02 20 -2 20 C-2 18.68 -2 17.36 -2 16 C-1.29875 15.773125 -0.5975 15.54625 0.125 15.3125 C3.69343613 13.68343133 6.06514511 11.59359269 9 9 C6.49316923 5.23975384 4.13506066 4.60807914 0 3 C0 2.01 0 1.02 0 0 Z " fill="#5D5DCA" transform="translate(76,178)"/>
<path d="M0 0 C0.33 0 0.66 0 1 0 C0.67 2.64 0.34 5.28 0 8 C0.99 8 1.98 8 3 8 C3.33 6.68 3.66 5.36 4 4 C4.66 4 5.32 4 6 4 C6 9.28 6 14.56 6 20 C5.67 20 5.34 20 5 20 C4.67 16.7 4.34 13.4 4 10 C3.01 12.97 2.02 15.94 1 19 C0.34 19 -0.32 19 -1 19 C-1 18.01 -1 17.02 -1 16 C-0.34 16 0.32 16 1 16 C0.67 14.68 0.34 13.36 0 12 C-0.99 12.33 -1.98 12.66 -3 13 C-2.52060632 8.28596212 -2.03165952 4.33420699 0 0 Z " fill="#6054DA" transform="translate(166,171)"/>
<path d="M0 0 C0.66 0 1.32 0 2 0 C2.69699552 1.45381897 3.38233866 2.91322953 4.0625 4.375 C4.63677734 5.59316406 4.63677734 5.59316406 5.22265625 6.8359375 C5.47917969 7.55007812 5.73570312 8.26421875 6 9 C5.67 9.66 5.34 10.32 5 11 C10.28 11 15.56 11 21 11 C21.33 10.34 21.66 9.68 22 9 C22.66 10.32 23.32 11.64 24 13 C16.74 13 9.48 13 2 13 C1.67 10.03 1.34 7.06 1 4 C0.67 2.68 0.34 1.36 0 0 Z " fill="#594ED2" transform="translate(514,196)"/>
<path d="M0 0 C6.93 0.33 13.86 0.66 21 1 C20.34 2.98 19.68 4.96 19 7 C18.67 5.68 18.34 4.36 18 3 C9.09 3.99 9.09 3.99 0 5 C0 6.65 0 8.3 0 10 C-0.99 10.495 -0.99 10.495 -2 11 C-1.125 3.375 -1.125 3.375 0 0 Z " fill="#5D51D9" transform="translate(169,160)"/>
<path d="M0 0 C1.32 0.66 2.64 1.32 4 2 C4 2.99 4 3.98 4 5 C1.80544267 6.52953996 -0.48933029 7.73230156 -2.85546875 8.97265625 C-6.9677801 11.03450394 -6.9677801 11.03450394 -9 15 C-9.99 14.67 -10.98 14.34 -12 14 C-12 12.68 -12 11.36 -12 10 C-11.20335938 9.67128906 -11.20335938 9.67128906 -10.390625 9.3359375 C-5.20457526 7.00789328 -2.72585417 4.99739932 0 0 Z " fill="#7269F5" transform="translate(90,152)"/>
<path d="M0 0 C0.66 0.33 1.32 0.66 2 1 C1.9278125 1.78761719 1.855625 2.57523438 1.78125 3.38671875 C0.41000559 17.75470356 0.41000559 17.75470356 2 32 C-1.3 32 -4.6 32 -8 32 C-7.505 30.515 -7.505 30.515 -7 29 C-5.02 29.33 -3.04 29.66 -1 30 C-1.00523682 29.30438965 -1.01047363 28.6087793 -1.01586914 27.89208984 C-1.03674337 24.71973587 -1.04969332 21.54739639 -1.0625 18.375 C-1.07087891 17.28058594 -1.07925781 16.18617188 -1.08789062 15.05859375 C-1.09111328 13.99511719 -1.09433594 12.93164062 -1.09765625 11.8359375 C-1.10289307 10.86188965 -1.10812988 9.8878418 -1.11352539 8.88427734 C-0.99414506 5.85124679 -0.55866724 2.98084732 0 0 Z " fill="#5F53CF" transform="translate(138,177)"/>
<path d="M0 0 C0.33 1.32 0.66 2.64 1 4 C2.32 4 3.64 4 5 4 C5.33 7.63 5.66 11.26 6 15 C5.01 14.67 4.02 14.34 3 14 C2.01 15.485 2.01 15.485 1 17 C1 15.02 1 13.04 1 11 C0.01 11 -0.98 11 -2 11 C-1.125 3.375 -1.125 3.375 0 0 Z " fill="#6153EF" transform="translate(459,169)"/>
<path d="M0 0 C0.99 0 1.98 0 3 0 C1.54331217 2.96783129 -0.01232086 5.86415313 -1.625 8.75 C-2.07101563 9.54921875 -2.51703125 10.3484375 -2.9765625 11.171875 C-3.31429687 11.77515625 -3.65203125 12.3784375 -4 13 C-5.98 13 -7.96 13 -10 13 C-10.33 11.68 -10.66 10.36 -11 9 C-11.99 9 -12.98 9 -14 9 C-15.06775224 7.03533587 -16.06553465 5.03144641 -17 3 C-16.67 2.34 -16.34 1.68 -16 1 C-15.01 1 -14.02 1 -13 1 C-12.87625 1.804375 -12.7525 2.60875 -12.625 3.4375 C-12.315625 4.7059375 -12.315625 4.7059375 -12 6 C-11.34 6.33 -10.68 6.66 -10 7 C-10 8.32 -10 9.64 -10 11 C-8.02 11 -6.04 11 -4 11 C-3.8453125 10.2265625 -3.8453125 10.2265625 -3.6875 9.4375 C-2.75736134 6.13973565 -1.38604488 3.13366668 0 0 Z " fill="#5C5EC0" transform="translate(67,202)"/>
<path d="M0 0 C2.83506524 0.31500725 4.76196765 0.85037966 7.1875 2.375 C10.03239579 6.4951939 10.35862849 11.1053227 11 16 C11.66 16 12.32 16 13 16 C13 17.32 13 18.64 13 20 C13.99 20.33 14.98 20.66 16 21 C15.67 22.98 15.34 24.96 15 27 C13.39464699 24.59197049 12.24847912 22.49314644 11.08984375 19.875 C10.73986328 19.08609375 10.38988281 18.2971875 10.02929688 17.484375 C9.66900391 16.66453125 9.30871094 15.8446875 8.9375 15 C8.57333984 14.18015625 8.20917969 13.3603125 7.83398438 12.515625 C6.43949614 9.36062758 5.09162229 6.27486686 4 3 C1.99983534 1.79117904 1.99983534 1.79117904 0 1 C0 0.67 0 0.34 0 0 Z " fill="#594DDD" transform="translate(372,167)"/>
<path d="M0 0 C0.33 1.32 0.66 2.64 1 4 C6.28 4 11.56 4 17 4 C17 2.68 17 1.36 17 0 C17.66 0 18.32 0 19 0 C19.66 1.98 20.32 3.96 21 6 C13.74 6 6.48 6 -1 6 C-1 3 -1 3 0 0 Z " fill="#574DCF" transform="translate(302,203)"/>
<path d="M0 0 C2.31 0.66 4.62 1.32 7 2 C7 2.33 7 2.66 7 3 C5.02 3.33 3.04 3.66 1 4 C1.34444881 6.47266765 1.34444881 6.47266765 2 9 C2.66 9.33 3.32 9.66 4 10 C4 20.89 4 31.78 4 43 C3.67 43 3.34 43 3 43 C3 32.44 3 21.88 3 11 C2.01 10.67 1.02 10.34 0 10 C-1.36952673 7.26094655 -1.12621361 5.02912668 -1 2 C-0.67 1.34 -0.34 0.68 0 0 Z " fill="#5F4FE9" transform="translate(329,158)"/>
<path d="M0 0 C0.66 0 1.32 0 2 0 C1.57388649 1.75280733 1.13360733 3.50217435 0.6875 5.25 C0.44386719 6.22453125 0.20023437 7.1990625 -0.05078125 8.203125 C-0.99652356 10.98975665 -2.10708713 12.77304368 -4 15 C-3.67 12.69 -3.34 10.38 -3 8 C-3.99 8 -4.98 8 -6 8 C-6.12375 8.78375 -6.2475 9.5675 -6.375 10.375 C-7 13 -7 13 -9 15 C-9.99 15 -10.98 15 -12 15 C-11 13 -11 13 -9.54296875 11.63671875 C-7.78383936 9.77070555 -7.14289366 8.22459586 -6.3125 5.8125 C-6.06113281 5.09707031 -5.80976563 4.38164062 -5.55078125 3.64453125 C-5.36902344 3.10183594 -5.18726563 2.55914062 -5 2 C-4.67 2.99 -4.34 3.98 -4 5 C-2.68 4.67 -1.36 4.34 0 4 C0 2.68 0 1.36 0 0 Z " fill="#5E50DA" transform="translate(411,170)"/>
<path d="M0 0 C4.95 0.99 9.9 1.98 15 3 C11.55062671 6.44937329 6.70168854 5.96982228 2 6 C-1.40021819 5.55414358 -4.68441778 4.87025043 -8 4 C-8 3.67 -8 3.34 -8 3 C-4.7 3 -1.4 3 2 3 C1.34 2.67 0.68 2.34 0 2 C0 1.34 0 0.68 0 0 Z " fill="#584CE0" transform="translate(216,204)"/>
<path d="M0 0 C0.66 0.33 1.32 0.66 2 1 C2 2.32 2 3.64 2 5 C3.60875 5.7734375 3.60875 5.7734375 5.25 6.5625 C9.48598546 8.95974126 10.97593998 11.62803035 13 16 C13 16.66 13 17.32 13 18 C13.99 18.33 14.98 18.66 16 19 C12 19 12 19 10.4375 17.8125 C6 12.2173913 6 12.2173913 6 9 C4.02 8.34 2.04 7.68 0 7 C-1.125 2.25 -1.125 2.25 0 0 Z " fill="#6A63C2" transform="translate(77,161)"/>
<path d="M0 0 C1.33333333 2.66666667 2.66666667 5.33333333 4 8 C3.01 8.495 3.01 8.495 2 9 C1.26924352 11.3140622 0.59861742 13.64828869 0 16 C1.98 16.33 3.96 16.66 6 17 C6.33 16.01 6.66 15.02 7 14 C7.33 15.32 7.66 16.64 8 18 C4.37 18 0.74 18 -3 18 C-2.690625 17.071875 -2.38125 16.14375 -2.0625 15.1875 C-0.6216844 10.22128454 -0.35305964 5.13794694 0 0 Z " fill="#574CCD" transform="translate(425,191)"/>
<path d="M0 0 C3.63 0 7.26 0 11 0 C10.01 0.495 10.01 0.495 9 1 C9.33 3.31 9.66 5.62 10 8 C10.66 8 11.32 8 12 8 C12.33 9.98 12.66 11.96 13 14 C10.47740939 12.02579865 10.0070192 11.03254358 9.3125 7.8125 C9.209375 6.884375 9.10625 5.95625 9 5 C7.02 5 5.04 5 3 5 C3.33 4.01 3.66 3.02 4 2 C2.68 1.34 1.36 0.68 0 0 Z " fill="#594BE8" transform="translate(567,161)"/>
<path d="M0 0 C3.33270689 3.33270689 3.21103361 6.60707542 3.3125 11.125 C3.29186248 17.26810306 2.06147332 21.71075816 -1 27 C-1.33 27 -1.66 27 -2 27 C-2 25.35 -2 23.7 -2 22 C-1.34 22 -0.68 22 0 22 C-0.33 19.36 -0.66 16.72 -1 14 C-0.01 13.67 0.98 13.34 2 13 C1.81535634 8.65815798 1.81535634 8.65815798 0 5 C-0.04063832 3.33382885 -0.042721 1.66611905 0 0 Z " fill="#5F52DC" transform="translate(293,173)"/>
<path d="M0 0 C1.4606285 2.64738916 2 3.89448334 2 7 C3.1446875 7.37125 3.1446875 7.37125 4.3125 7.75 C7.34813868 9.16192497 8.44504874 10.05377656 10 13 C10.1875 16.25 10.1875 16.25 10 19 C9.67 19 9.34 19 9 19 C9 17.35 9 15.7 9 14 C7.68 13.67 6.36 13.34 5 13 C5 12.34 5 11.68 5 11 C4.38125 10.9175 3.7625 10.835 3.125 10.75 C1 10 1 10 -0.3125 8.3125 C-1.21465796 5.27796869 -0.69345348 3.05119529 0 0 Z " fill="#5958C1" transform="translate(95,194)"/>
<path d="M0 0 C0.66 0 1.32 0 2 0 C1.71459486 1.56365584 1.42136502 3.12588434 1.125 4.6875 C0.96257812 5.55761719 0.80015625 6.42773438 0.6328125 7.32421875 C0 10 0 10 -2 15 C1.63 15 5.26 15 9 15 C8.67 12.69 8.34 10.38 8 8 C10 11 10 11 10 16 C5.71 16 1.42 16 -3 16 C-4.10191901 11.59232396 -3.58706842 10.1077065 -2 6 C-1.34 6 -0.68 6 0 6 C0 4.02 0 2.04 0 0 Z " fill="#5E54D0" transform="translate(503,176)"/>
<path d="M0 0 C2.375 0.5 2.375 0.5 4.375 2.5 C4.375 3.82 4.375 5.14 4.375 6.5 C5.365 6.83 6.355 7.16 7.375 7.5 C9.45030387 10.42079805 10.375 11.87546731 10.375 15.5 C6.71163903 14.27887968 6.02457986 12.63279518 4.14453125 9.38671875 C3.375 7.5 3.375 7.5 3.375 3.5 C2.715 3.5 2.055 3.5 1.375 3.5 C1.375 2.84 1.375 2.18 1.375 1.5 C0.055 1.83 -1.265 2.16 -2.625 2.5 C-2.955 3.82 -3.285 5.14 -3.625 6.5 C-4.615 6.5 -5.605 6.5 -6.625 6.5 C-3.325 0.63333333 -3.325 0.63333333 0 0 Z " fill="#5755C1" transform="translate(59.625,157.5)"/>
<path d="M0 0 C0.99 0.495 0.99 0.495 2 1 C2 4.63 2 8.26 2 12 C2.99 12 3.98 12 5 12 C5.33 11.34 5.66 10.68 6 10 C6.66 10 7.32 10 8 10 C8 8.35 8 6.7 8 5 C8.66 5 9.32 5 10 5 C9.68657358 8.44769066 9.32465015 10.55940337 7.25 13.375 C5 15 5 15 0 15 C0 10.05 0 5.1 0 0 Z " fill="#5D50D5" transform="translate(539,161)"/>
<path d="M0 0 C1.32 0 2.64 0 4 0 C4 0.66 4 1.32 4 2 C5.32 2.33 6.64 2.66 8 3 C8 3.66 8 4.32 8 5 C9.32 5.33 10.64 5.66 12 6 C11.67 7.65 11.34 9.3 11 11 C9.68 10.67 8.36 10.34 7 10 C7.66 8.68 8.32 7.36 9 6 C7.6078125 5.9071875 7.6078125 5.9071875 6.1875 5.8125 C3 5 3 5 1.125 2.4375 C0.75375 1.633125 0.3825 0.82875 0 0 Z " fill="#654FF7" transform="translate(92,202)"/>
<path d="M0 0 C0.66 0.33 1.32 0.66 2 1 C-6.23978532 14.58206371 -6.23978532 14.58206371 -13.9375 16.875 C-14.618125 16.91625 -15.29875 16.9575 -16 17 C-12.83525695 13.74483572 -9.67247209 10.67991207 -6 8 C-5.34 8 -4.68 8 -4 8 C-3.71125 7.236875 -3.4225 6.47375 -3.125 5.6875 C-2 3 -2 3 0 0 Z " fill="#6F6ECE" transform="translate(53,165)"/>
<path d="M0 0 C0.84820312 0.32742187 1.69640625 0.65484375 2.5703125 0.9921875 C6.20190011 2.05932828 9.10336301 2.20197218 12.875 2.125 C14.02742188 2.10695312 15.17984375 2.08890625 16.3671875 2.0703125 C17.23601562 2.04710937 18.10484375 2.02390625 19 2 C19 2.66 19 3.32 19 4 C17.08574219 4.07347656 17.08574219 4.07347656 15.1328125 4.1484375 C13.46351928 4.22346191 11.79424954 4.29900988 10.125 4.375 C8.86236328 4.42140625 8.86236328 4.42140625 7.57421875 4.46875 C6.36572266 4.52675781 6.36572266 4.52675781 5.1328125 4.5859375 C4.38918457 4.6173584 3.64555664 4.6487793 2.87939453 4.68115234 C0.75989026 4.85419551 0.75989026 4.85419551 -1 7 C-0.67 4.69 -0.34 2.38 0 0 Z " fill="#5F56D3" transform="translate(372,159)"/>
<path d="M0 0 C1.98 0.66 3.96 1.32 6 2 C6 3.65 6 5.3 6 7 C6.66 7 7.32 7 8 7 C8 7.99 8 8.98 8 10 C7.01 9.67 6.02 9.34 5 9 C5 8.34 5 7.68 5 7 C4.01 7 3.02 7 2 7 C0.25 5.75 0.25 5.75 -1 4 C-0.6875 1.8125 -0.6875 1.8125 0 0 Z " fill="#746FE2" transform="translate(42,192)"/>
<path d="M0 0 C-1.32 0.33 -2.64 0.66 -4 1 C-4 1.66 -4 2.32 -4 3 C-4.99 3 -5.98 3 -7 3 C-7.1546875 4.1446875 -7.1546875 4.1446875 -7.3125 5.3125 C-8.05657891 8.22117209 -8.48017068 9.38010972 -11 11 C-13.6875 10.6875 -13.6875 10.6875 -16 10 C-16 9.67 -16 9.34 -16 9 C-14.35 9 -12.7 9 -11 9 C-11 8.01 -11 7.02 -11 6 C-10.34 6 -9.68 6 -9 6 C-8.67 4.35 -8.34 2.7 -8 1 C-5.07175348 0.02391783 -3.04386724 -0.08226668 0 0 Z " fill="#5954C3" transform="translate(104,214)"/>
<path d="M0 0 C1.98 0 3.96 0 6 0 C7.35439668 2.70879335 7.06501451 5.00933268 7 8 C6.01 8 5.02 8 4 8 C4 7.01 4 6.02 4 5 C3.01 5.33 2.02 5.66 1 6 C0.67 4.02 0.34 2.04 0 0 Z " fill="#6760E4" transform="translate(88,194)"/>
<path d="M0 0 C1.16402344 -0.03867188 1.16402344 -0.03867188 2.3515625 -0.078125 C3.01929688 0.03015625 3.68703125 0.1384375 4.375 0.25 C5.035 1.24 5.695 2.23 6.375 3.25 C1.425 3.25 -3.525 3.25 -8.625 3.25 C-8.625 2.59 -8.625 1.93 -8.625 1.25 C-5.70881479 0.42441332 -3.02964506 0.06079555 0 0 Z " fill="#5445F5" transform="translate(507.625,191.75)"/>
<path d="M0 0 C1.98 0.495 1.98 0.495 4 1 C3.67 4.63 3.34 8.26 3 12 C0 10 0 10 -0.75 7.6875 C-1.01128999 4.87863258 -0.69940974 2.71992678 0 0 Z " fill="#5C4CF7" transform="translate(426,185)"/>
<path d="M0 0 C3.63 0.33 7.26 0.66 11 1 C9.68 1.99 8.36 2.98 7 4 C6.24756445 5.92638012 6.24756445 5.92638012 6 8 C5.66666667 9.33333333 5.33333333 10.66666667 5 12 C4.608125 11.195625 4.21625 10.39125 3.8125 9.5625 C2.23051809 6.76935262 2.23051809 6.76935262 -0.6875 6.1875 C-1.8321875 6.0946875 -1.8321875 6.0946875 -3 6 C-3 5.67 -3 5.34 -3 5 C-2.030625 4.87625 -1.06125 4.7525 -0.0625 4.625 C0.948125 4.41875 1.95875 4.2125 3 4 C3.33 3.34 3.66 2.68 4 2 C4.33 1.67 4.66 1.34 5 1 C3.35 1 1.7 1 0 1 C0 0.67 0 0.34 0 0 Z " fill="#5E51DE" transform="translate(271,160)"/>
<path d="M0 0 C1.60546875 1.53125 1.60546875 1.53125 3.1875 3.5 C3.71730469 4.1496875 4.24710938 4.799375 4.79296875 5.46875 C5.19128906 5.9740625 5.58960937 6.479375 6 7 C5.67 7.66 5.34 8.32 5 9 C4.34 8.67 3.68 8.34 3 8 C3 7.34 3 6.68 3 6 C2.43410156 5.87882813 1.86820312 5.75765625 1.28515625 5.6328125 C0.55167969 5.46523437 -0.18179688 5.29765625 -0.9375 5.125 C-1.66839844 4.96257812 -2.39929688 4.80015625 -3.15234375 4.6328125 C-5 4 -5 4 -6 2 C-3 0 -3 0 0 0 Z " fill="#604EF7" transform="translate(82,207)"/>
<path d="M0 0 C1.32 0 2.64 0 4 0 C3.67 3.63 3.34 7.26 3 11 C1.68 10.67 0.36 10.34 -1 10 C-1.33 9.01 -1.66 8.02 -2 7 C-1.01 6.67 -0.02 6.34 1 6 C0.34 6 -0.32 6 -1 6 C-0.67 4.02 -0.34 2.04 0 0 Z " fill="#5645F3" transform="translate(618,176)"/>
<path d="M0 0 C0.33 1.32 0.66 2.64 1 4 C-0.32 4 -1.64 4 -3 4 C-3.33 4.99 -3.66 5.98 -4 7 C-4.66 7 -5.32 7 -6 7 C-6.28875 7.804375 -6.5775 8.60875 -6.875 9.4375 C-8 12 -8 12 -10 13 C-9.69080565 9.59886217 -9.41046843 7.51308554 -7.25 4.8125 C-4.93914091 2.95097462 -2.5920798 1.44004433 0 0 Z " fill="#5F59C3" transform="translate(103,166)"/>
<path d="M0 0 C0.66 0 1.32 0 2 0 C2 4.95 2 9.9 2 15 C-3 15 -3 15 -5.3125 13 C-5.869375 12.34 -6.42625 11.68 -7 11 C-5.68 10.67 -4.36 10.34 -3 10 C-2.67 11.32 -2.34 12.64 -2 14 C-1.34 14 -0.68 14 0 14 C0 9.38 0 4.76 0 0 Z " fill="#5D52DA" transform="translate(367,161)"/>
<path d="M0 0 C0 0.66 0 1.32 0 2 C-1.24716797 2.16435547 -1.24716797 2.16435547 -2.51953125 2.33203125 C-3.60621094 2.49058594 -4.69289063 2.64914063 -5.8125 2.8125 C-6.89144531 2.96332031 -7.97039062 3.11414063 -9.08203125 3.26953125 C-12.06440991 4.01612403 -13.14223479 4.62075684 -15 7 C-15.33 5.35 -15.66 3.7 -16 2 C-13.32918678 0.66459339 -10.973789 0.66267873 -8 0.4375 C-6.9275 0.35371094 -5.855 0.26992187 -4.75 0.18359375 C-3.16900381 0.07804429 -1.58451558 0 0 0 Z " fill="#6154E2" transform="translate(445,160)"/>
<path d="M0 0 C-0.928125 0.515625 -1.85625 1.03125 -2.8125 1.5625 C-6.59173021 4.03731505 -7.54881819 6.807697 -9 11 C-9.99 11 -10.98 11 -12 11 C-10.74337944 6.49710965 -9.16038089 3.4566666 -6 0 C-3.50907189 -1.24546405 -2.58919267 -0.7767578 0 0 Z " fill="#6B60EC" transform="translate(102,168)"/>
<path d="M0 0 C3.29185738 -0.36576193 4.58581832 -0.3221413 7.25 1.75 C8.95663677 3.94424728 9.61205523 5.28438663 10 8 C9.34 8 8.68 8 8 8 C8 7.34 8 6.68 8 6 C7.34 6 6.68 6 6 6 C5.67 5.34 5.34 4.68 5 4 C2.47266765 3.34444881 2.47266765 3.34444881 0 3 C0 2.01 0 1.02 0 0 Z " fill="#5E54CF" transform="translate(77,211)"/>
<path d="M0 0 C0 1.98 0 3.96 0 6 C-3 6 -6 6 -9 6 C-8.67 5.34 -8.34 4.68 -8 4 C-7.01 4 -6.02 4 -5 4 C-4.67 3.01 -4.34 2.02 -4 1 C-1 0 -1 0 0 0 Z " fill="#554FD3" transform="translate(85,202)"/>
<path d="M0 0 C1.32 0.33 2.64 0.66 4 1 C1.54908957 3.68433048 -0.28241384 4.91789741 -4.04296875 5.09765625 C-4.75066406 5.08605469 -5.45835937 5.07445312 -6.1875 5.0625 C-8.0746875 5.0315625 -8.0746875 5.0315625 -10 5 C-9.34 4.01 -8.68 3.02 -8 2 C-6.0546875 1.70703125 -6.0546875 1.70703125 -3.875 1.8125 C-2.59625 1.874375 -1.3175 1.93625 0 2 C0 1.34 0 0.68 0 0 Z " fill="#594BEA" transform="translate(284,202)"/>
<path d="M0 0 C0.99 0.33 1.98 0.66 3 1 C4.6875 4.5625 4.6875 4.5625 6 8 C5.01 8.33 4.02 8.66 3 9 C0.90250005 6.64031256 0.03094296 5.45383006 -0.1875 2.25 C-0.125625 1.5075 -0.06375 0.765 0 0 Z " fill="#7872F9" transform="translate(62,165)"/>
<path d="M0 0 C1.65 0 3.3 0 5 0 C4.79375 0.61875 4.5875 1.2375 4.375 1.875 C4.25125 2.57625 4.1275 3.2775 4 4 C4.66 4.66 5.32 5.32 6 6 C5.625 8.125 5.625 8.125 5 10 C5 9.01 5 8.02 5 7 C2.525 6.01 2.525 6.01 0 5 C0 3.35 0 1.7 0 0 Z " fill="#5C4EDB" transform="translate(402,160)"/>
<path d="M0 0 C0.66 0.33 1.32 0.66 2 1 C2.40729228 3.32156597 2.74438677 5.6568787 3 8 C1.35 8.33 -0.3 8.66 -2 9 C-1.125 2.25 -1.125 2.25 0 0 Z " fill="#5A4AFD" transform="translate(427,198)"/>
<path d="M0 0 C0.33 1.32 0.66 2.64 1 4 C-0.32 4.99 -1.64 5.98 -3 7 C-3.66 6.67 -4.32 6.34 -5 6 C-5 6.66 -5 7.32 -5 8 C-5.66 7.67 -6.32 7.34 -7 7 C-3.72340426 0 -3.72340426 0 0 0 Z " fill="#7776EC" transform="translate(61,159)"/>
<path d="M0 0 C2.1755306 2.1755306 2.71879553 3.55973892 3.6875 6.4375 C3.95949219 7.21996094 4.23148437 8.00242188 4.51171875 8.80859375 C5 11 5 11 4 14 C4 13.34 4 12.68 4 12 C2.68 11.34 1.36 10.68 0 10 C0.185625 9.46375 0.37125 8.9275 0.5625 8.375 C1.11419324 5.38009386 0.60597444 2.96254171 0 0 Z " fill="#6254E0" transform="translate(448,172)"/>
<path d="M0 0 C1.98 0.66 3.96 1.32 6 2 C6 2.33 6 2.66 6 3 C4.02 3 2.04 3 0 3 C0.495 4.051875 0.99 5.10375 1.5 6.1875 C2.82779788 9.25452609 3.30715006 11.62134936 3 15 C2.566875 14.1028125 2.566875 14.1028125 2.125 13.1875 C0.95257974 10.80672208 0.95257974 10.80672208 -1 8 C-1.32727273 2.65454545 -1.32727273 2.65454545 0 0 Z " fill="#5E52D0" transform="translate(425,158)"/>
<path d="M0 0 C2.475 0.99 2.475 0.99 5 2 C5 2.99 5 3.98 5 5 C4.34 5.66 3.68 6.32 3 7 C1.68 6.34 0.36 5.68 -1 5 C-0.67 3.35 -0.34 1.7 0 0 Z " fill="#5D4FE7" transform="translate(249,158)"/>
<path d="M0 0 C0 0.66 0 1.32 0 2 C-4.455 2.495 -4.455 2.495 -9 3 C-9.33 4.32 -9.66 5.64 -10 7 C-10.33 7 -10.66 7 -11 7 C-11 5.02 -11 3.04 -11 1 C-9.54182203 0.83197949 -8.0834516 0.66562857 -6.625 0.5 C-5.81289062 0.4071875 -5.00078125 0.314375 -4.1640625 0.21875 C-2 0 -2 0 0 0 Z " fill="#6053D8" transform="translate(153,160)"/>
<path d="M0 0 C0.99 0.33 1.98 0.66 3 1 C3.12375 1.78375 3.2475 2.5675 3.375 3.375 C3.79117993 6.14057822 3.79117993 6.14057822 6 8 C4.02 8 2.04 8 0 8 C-0.33 6.68 -0.66 5.36 -1 4 C-0.34 4 0.32 4 1 4 C0.67 2.68 0.34 1.36 0 0 Z " fill="#574CE6" transform="translate(86,215)"/>
<path d="M0 0 C1.32 0 2.64 0 4 0 C4.12375 0.804375 4.2475 1.60875 4.375 2.4375 C4.684375 3.7059375 4.684375 3.7059375 5 5 C5.66 5.33 6.32 5.66 7 6 C6.67 7.32 6.34 8.64 6 10 C6 9.34 6 8.68 6 8 C5.01 8 4.02 8 3 8 C0 2.25 0 2.25 0 0 Z " fill="#6B67D1" transform="translate(50,203)"/>
<path d="M0 0 C0.33 0 0.66 0 1 0 C1.09945415 6.11090483 1.0712828 11.97403427 0 18 C-1.32 17.67 -2.64 17.34 -4 17 C-3.525625 16.05125 -3.05125 15.1025 -2.5625 14.125 C-0.57242218 9.5534533 -0.28773098 4.93111373 0 0 Z " fill="#5F51D2" transform="translate(226,187)"/>
<path d="M0 0 C0.99 0.33 1.98 0.66 3 1 C3 1.99 3 2.98 3 4 C3.66 4 4.32 4 5 4 C4.67 5.65 4.34 7.3 4 9 C3.01 8.34 2.02 7.68 1 7 C0.3125 3.375 0.3125 3.375 0 0 Z " fill="#5C50E9" transform="translate(433,178)"/>
<path d="M0 0 C0.33 0 0.66 0 1 0 C1 3.3 1 6.6 1 10 C-0.65 10 -2.3 10 -4 10 C-4.66 8.35 -5.32 6.7 -6 5 C-5.34 5 -4.68 5 -4 5 C-4 5.66 -4 6.32 -4 7 C-3.01 7 -2.02 7 -1 7 C-0.67 4.69 -0.34 2.38 0 0 Z " fill="#5246CF" transform="translate(621,179)"/>
<path d="M0 0 C2.97 0.495 2.97 0.495 6 1 C5.360625 1.268125 4.72125 1.53625 4.0625 1.8125 C1.66868314 2.88667752 1.66868314 2.88667752 1 6 C0.01 6.33 -0.98 6.66 -2 7 C-1.34 4.69 -0.68 2.38 0 0 Z " fill="#5A50E0" transform="translate(462,160)"/>
<path d="M0 0 C2.31 0.66 4.62 1.32 7 2 C7 2.33 7 2.66 7 3 C5.02 3.33 3.04 3.66 1 4 C1.33 6.31 1.66 8.62 2 11 C0.5 9.875 0.5 9.875 -1 8 C-1.25265405 4.90498792 -1.39935013 2.79870027 0 0 Z " fill="#5C4ED2" transform="translate(329,158)"/>
<path d="M0 0 C0.33 0 0.66 0 1 0 C1 1.65 1 3.3 1 5 C0.34 5 -0.32 5 -1 5 C-1.33 5.99 -1.66 6.98 -2 8 C-2.99 7.34 -3.98 6.68 -5 6 C-4.67 4.68 -4.34 3.36 -4 2 C-3.01 2 -2.02 2 -1 2 C-0.67 1.34 -0.34 0.68 0 0 Z " fill="#5E4BF9" transform="translate(94,215)"/>
<path d="M0 0 C0.66 0 1.32 0 2 0 C2.33 0.66 2.66 1.32 3 2 C6.04581269 2.46954261 6.04581269 2.46954261 9.5625 2.625 C10.76003906 2.69976562 11.95757812 2.77453125 13.19140625 2.8515625 C14.11824219 2.90054688 15.04507813 2.94953125 16 3 C16 3.33 16 3.66 16 4 C10.72 4 5.44 4 0 4 C0 2.68 0 1.36 0 0 Z " fill="#5749E1" transform="translate(171,204)"/>
<path d="M0 0 C2.64 0 5.28 0 8 0 C7.67 0.99 7.34 1.98 7 3 C4.69 3 2.38 3 0 3 C0 2.01 0 1.02 0 0 Z " fill="#5443F5" transform="translate(266,204)"/>
<path d="M0 0 C3.78125 0.703125 3.78125 0.703125 5.75 3.375 C7 6 7 6 7 9 C4 8 4 8 2.83203125 6.15234375 C2.49558594 5.42144531 2.15914063 4.69054687 1.8125 3.9375 C1.46832031 3.20402344 1.12414062 2.47054687 0.76953125 1.71484375 C0.51558594 1.14894531 0.26164062 0.58304688 0 0 Z " fill="#6665CD" transform="translate(63,164)"/>
<path d="M0 0 C-0.33 1.32 -0.66 2.64 -1 4 C-4 4 -4 4 -7 3 C-7 2.34 -7 1.68 -7 1 C-4.53721199 -0.231394 -2.7204945 -0.07159196 0 0 Z " fill="#5E4FFD" transform="translate(412,161)"/>
<path d="M0 0 C1.32 0.66 2.64 1.32 4 2 C4 2.99 4 3.98 4 5 C1.66666667 5 -0.66666667 5 -3 5 C-2.01 3.35 -1.02 1.7 0 0 Z " fill="#7F77F9" transform="translate(90,152)"/>
<path d="M0 0 C2.97 0.495 2.97 0.495 6 1 C5.01 2.485 5.01 2.485 4 4 C1.375 4.1875 1.375 4.1875 -1 4 C-0.67 2.68 -0.34 1.36 0 0 Z " fill="#5144E8" transform="translate(610,180)"/>
<path d="M0 0 C2.64 0.66 5.28 1.32 8 2 C8 2.33 8 2.66 8 3 C6.02 3 4.04 3 2 3 C1.67 4.32 1.34 5.64 1 7 C0 6 0 6 -0.0625 2.9375 C-0.041875 1.968125 -0.02125 0.99875 0 0 Z " fill="#5B4EDA" transform="translate(500,158)"/>
<path d="M0 0 C0.2475 0.61875 0.495 1.2375 0.75 1.875 C2.01039254 4.45868886 2.01039254 4.45868886 6 6 C3.03 6 0.06 6 -3 6 C-2.01 4.02 -1.02 2.04 0 0 Z " fill="#5A4ED6" transform="translate(331,202)"/>
<path d="M0 0 C0 1.65 0 3.3 0 5 C-1.65 5 -3.3 5 -5 5 C-4.625 3.0625 -4.625 3.0625 -4 1 C-2 0 -2 0 0 0 Z " fill="#5B48FD" transform="translate(495,202)"/>
<path d="M0 0 C1.03159626 3.09478879 0.97482862 4.52631393 0.5625 7.6875 C0.46066406 8.49574219 0.35882813 9.30398437 0.25390625 10.13671875 C0.17011719 10.75160156 0.08632813 11.36648437 0 12 C-0.33 12 -0.66 12 -1 12 C-1 9.69 -1 7.38 -1 5 C-1.66 5 -2.32 5 -3 5 C-3 4.01 -3 3.02 -3 2 C-2.01 1.34 -1.02 0.68 0 0 Z " fill="#6053E1" transform="translate(404,189)"/>
<path d="M0 0 C0.66 0.33 1.32 0.66 2 1 C2 2.32 2 3.64 2 5 C2.99 5.66 3.98 6.32 5 7 C4.67 7.66 4.34 8.32 4 9 C2.0625 8.3125 2.0625 8.3125 0 7 C-0.93580311 4.12060581 -1.37245106 2.74490212 0 0 Z " fill="#6260BB" transform="translate(77,161)"/>
<path d="M0 0 C1.41377341 2.63904371 2.37240135 5.07120629 3 8 C2.01 8 1.02 8 0 8 C-1.125 2.25 -1.125 2.25 0 0 Z " fill="#3E3FD7" transform="translate(95,194)"/>
<path d="M0 0 C0.66 0.33 1.32 0.66 2 1 C2 1.66 2 2.32 2 3 C1.01 3 0.02 3 -1 3 C-0.67 4.32 -0.34 5.64 0 7 C-1.32 6.67 -2.64 6.34 -4 6 C-2.25 1.125 -2.25 1.125 0 0 Z " fill="#5B56E7" transform="translate(72,195)"/>
<path d="M0 0 C1.32 0.33 2.64 0.66 4 1 C4 1.99 4 2.98 4 4 C4.99 4.33 5.98 4.66 7 5 C6.01 5.495 6.01 5.495 5 6 C2.375 4.75 2.375 4.75 0 3 C0 2.01 0 1.02 0 0 Z " fill="#7070D3" transform="translate(33,188)"/>
<path d="M0 0 C1.1875 1.5625 1.1875 1.5625 2 4 C0.625 7.75 0.625 7.75 -1 11 C-2.60080151 6.99799622 -1.29279692 3.95443764 0 0 Z " fill="#6155D5" transform="translate(459,169)"/>
<path d="M0 0 C1.98 0.66 3.96 1.32 6 2 C6 2.33 6 2.66 6 3 C4.02 3 2.04 3 0 3 C0 4.65 0 6.3 0 8 C-0.33 8 -0.66 8 -1 8 C-1.125 2.25 -1.125 2.25 0 0 Z " fill="#5C4EC3" transform="translate(301,158)"/>
<path d="M0 0 C-0.9590625 0.433125 -0.9590625 0.433125 -1.9375 0.875 C-4.15206079 1.82823451 -4.15206079 1.82823451 -5 4 C-5.66 3.67 -6.32 3.34 -7 3 C-7 2.01 -7 1.02 -7 0 C-3.98968256 -0.93423645 -3.13349732 -1.04449911 0 0 Z " fill="#5D4BFC" transform="translate(232,164)"/>
</svg>
